# xmcd
#
# Track frame offsets: 
#        150
#        13980
#        27370
#        46557
#        66885
#        81477
#        96730
#        107230
#        119967
#        136460
#        150742
#        164785
#        178850
#        195705
#        211460
#        225860
#        241435
#
# Disc length: 3421 seconds
#
# Revision: 4
# Processed by: cddbd v1.5.2PL0 Copyright (c) Steve Scherf et al.
# Submitted via: ExactAudioCopyFreeDBPlugin 1.0
#
DISCID=fe0d5b11
DTITLE=Kris Kristofferson - Kris Kristofferson - Singer
DYEAR=1991
DGENRE=Country
TTITLE0=Jody And the Kid
TTITLE1=From The Bottle To The Bottom
TTITLE2=Me And Bobby McGee
TTITLE3=Sunday Mornin' Comin' Down
TTITLE4=The Taker
TTITLE5=For The Good Times
TTITLE6=Help Me Through The Night
TTITLE7=Once More With Feeling
TTITLE8=Come Sundown
TTITLE9=I'd Rather Be Sorry [w.Rita Coolidge]
TTITLE10=Nobody Wins
TTITLE11=Stranger
TTITLE12=Loving Her Was Easier
TTITLE13=If You Don't Like Hawk Williams
TTITLE14=Josie
TTITLE15=Why Me
TTITLE16=They Killd Him [w. Memphis Tennesee Police Choier]
EXTD=YEAR: 1991
EXTT0=
EXTT1=
EXTT2=
EXTT3=
EXTT4=
EXTT5=
EXTT6=
EXTT7=
EXTT8=
EXTT9=
EXTT10=
EXTT11=
EXTT12=
EXTT13=
EXTT14=
EXTT15=
EXTT16=
PLAYORDER=
